<svg height="32" viewBox="0 0 32 32" width="32" xmlns="http://www.w3.org/2000/svg"><circle cx="22" cy="24" r="2"/><path d="m22 28a4 4 0 1 1 4-4 4.0039 4.0039 0 0 1 -4 4zm0-6a2 2 0 1 0 2 2 2.0027 2.0027 0 0 0 -2-2z" fill="none"/><path d="m29.7769 23.4785a8.64 8.64 0 0 0 -7.7769-5.4785 8.64 8.64 0 0 0 -7.7769 5.4785l-.2231.5215.2231.5215a8.64 8.64 0 0 0 7.7769 5.4785 8.64 8.64 0 0 0 7.7769-5.4785l.2231-.5215zm-7.7769 4.5215a4 4 0 1 1 4-4 4.0045 4.0045 0 0 1 -4 4z"/><path d="m12 28h-5v-21h3v3h12v-3h3v9h2v-9a2 2 0 0 0 -2-2h-3v-1a2 2 0 0 0 -2-2h-8a2 2 0 0 0 -2 2v1h-3a2 2 0 0 0 -2 2v21a2 2 0 0 0 2 2h5zm0-24h8v4h-8z"/><path d="m0 0h32v32h-32z" fill="none"/></svg>